<svg xmlns="http://www.w3.org/2000/svg" viewBox="0 0 512 512">
  <rect width="512" height="512" rx="120" fill="#081121"/>
  <rect x="76" y="76" width="360" height="360" rx="96" fill="#ff7a00"/>
  <path
    fill="#fff7ed"
    d="M154 160h204c17.673 0 32 14.327 32 32v128c0 17.673-14.327 32-32 32H250l-62 48c-10.512 8.138-26-.453-26-13.748V352h-8c-17.673 0-32-14.327-32-32V192c0-17.673 14.327-32 32-32zm38 74c-11.046 0-20 8.954-20 20s8.954 20 20 20 20-8.954 20-20-8.954-20-20-20zm64 0c-11.046 0-20 8.954-20 20s8.954 20 20 20 20-8.954 20-20-8.954-20-20-20zm64 0c-11.046 0-20 8.954-20 20s8.954 20 20 20 20-8.954 20-20-8.954-20-20-20z"
  />
</svg>
