<svg width="1024" height="1024" viewBox="206 205 620 620" fill="none" xmlns="http://www.w3.org/2000/svg">
  <path
    d="M275 243H747C786.764 243 819 275.236 819 315V438L644 535C601.251 558.695 575 603.696 575 652.569V788H553V652.569C553 596.421 522.832 544.59 474.02 516.713L214 368V315C214 275.236 246.236 243 286 243H275Z"
    fill="#FF7315"
  />
  <path
    d="M214 465L435 594.105C470.275 614.724 492 652.569 492 693.427V788H286C246.236 788 214 755.764 214 716V465Z"
    fill="#FF7315"
  />
  <path
    d="M819 585V716C819 755.764 786.764 788 747 788H597V761.726C597 723.297 617.77 687.869 651.234 669.112L819 585Z"
    fill="#FF7315"
  />
</svg>
