<svg xmlns="http://www.w3.org/2000/svg" viewBox="0 0 24 24" role="img" aria-hidden="true">
  <rect width="24" height="24" rx="12" fill="#5865F2"/>
  <path d="M17.5 8.3a11 11 0 0 0-2.7-.8l-.1.2c-.1.3-.3.7-.4 1-.8-.1-1.5-.1-2.3-.1-.8 0-1.5 0-2.3.1-.1-.3-.2-.7-.4-1l-.1-.2c-.9.2-1.8.5-2.7.8C4.8 11 4.4 13.6 4.5 16.2c1 .7 2 1.2 3.1 1.6.3-.4.6-.9.8-1.3-.4-.1-.8-.3-1.1-.5l.3-.2c2.1 1 4.6 1 6.7 0l.3.2c-.3.2-.7.4-1.1.5.2.5.5.9.8 1.3 1.1-.4 2.1-.9 3.1-1.6.2-3.1-.4-5.7-1.9-7.9zm-6.7 6.3c-.7 0-1.3-.7-1.3-1.5s.6-1.5 1.3-1.5c.8 0 1.4.7 1.3 1.5 0 .8-.6 1.5-1.3 1.5zm4.4 0c-.7 0-1.3-.7-1.3-1.5s.6-1.5 1.3-1.5c.8 0 1.4.7 1.3 1.5 0 .8-.6 1.5-1.3 1.5z" fill="#fff"/>
</svg>
