<svg xmlns="http://www.w3.org/2000/svg" viewBox="0 0 24 24" role="img" aria-hidden="true">
  <rect width="24" height="24" rx="12" fill="#E6162D"/>
  <path d="M8 15.5c0-2.1 2-3.8 4.6-3.8s4.6 1.7 4.6 3.8-2 3.8-4.6 3.8S8 17.6 8 15.5zm2.2-.1c0 1 1 1.8 2.4 1.8s2.4-.8 2.4-1.8-1-1.8-2.4-1.8-2.4.8-2.4 1.8zm7.4-6.1c.8.3 1.4 1.1 1.4 2 0 .3.3.6.6.6s.6-.3.6-.6c0-1.4-.9-2.7-2.2-3.2-.3-.1-.7 0-.8.4-.1.3 0 .7.4.8zm-2 .8c.5.2.9.7.9 1.2 0 .3.3.6.6.6s.6-.3.6-.6c0-1.1-.7-2-1.7-2.4-.3-.1-.7 0-.8.4s0 .7.4.8z" fill="#fff"/>
</svg>
